<svg xmlns="http://www.w3.org/2000/svg" width="1024" height="1024" viewBox="0 0 1024 1024" fill="none">
  <defs>
    <linearGradient id="violetOrbit" x1="244" y1="170" x2="816" y2="770" gradientUnits="userSpaceOnUse">
      <stop stop-color="#B5A7FF"/>
      <stop offset="0.42" stop-color="#855CFF"/>
      <stop offset="1" stop-color="#5A35E8"/>
    </linearGradient>
    <linearGradient id="cyanOrbit" x1="722" y1="828" x2="214" y2="270" gradientUnits="userSpaceOnUse">
      <stop stop-color="#62D9FF"/>
      <stop offset="0.5" stop-color="#38B9E8"/>
      <stop offset="1" stop-color="#7862FF"/>
    </linearGradient>
    <radialGradient id="violetNode" cx="0" cy="0" r="1" gradientTransform="translate(590 364) rotate(135) scale(98)">
      <stop stop-color="#F1EEFF"/>
      <stop offset="0.32" stop-color="#B5A7FF"/>
      <stop offset="1" stop-color="#7049F4"/>
    </radialGradient>
    <radialGradient id="cyanNode" cx="0" cy="0" r="1" gradientTransform="translate(392 608) rotate(135) scale(98)">
      <stop stop-color="#E8FCFF"/>
      <stop offset="0.32" stop-color="#62D9FF"/>
      <stop offset="1" stop-color="#2AAEDC"/>
    </radialGradient>
    <filter id="softGlow" x="-30%" y="-30%" width="160%" height="160%" color-interpolation-filters="sRGB">
      <feGaussianBlur stdDeviation="18" result="blur"/>
      <feMerge>
        <feMergeNode in="blur"/>
        <feMergeNode in="SourceGraphic"/>
      </feMerge>
    </filter>
  </defs>

  <g filter="url(#softGlow)" opacity="0.3">
    <path d="M286 348C371 220 543 177 677 251C754 294 801 370 806 452" stroke="#9B86FF" stroke-width="86" stroke-linecap="round"/>
    <path d="M738 676C653 804 481 847 347 773C270 730 223 654 218 572" stroke="#4DD2F5" stroke-width="86" stroke-linecap="round"/>
  </g>

  <path d="M286 348C371 220 543 177 677 251C754 294 801 370 806 452" stroke="url(#violetOrbit)" stroke-width="72" stroke-linecap="round"/>
  <path d="M738 676C653 804 481 847 347 773C270 730 223 654 218 572" stroke="url(#cyanOrbit)" stroke-width="72" stroke-linecap="round"/>

  <circle cx="611" cy="390" r="52" fill="url(#violetNode)"/>
  <circle cx="611" cy="390" r="18" fill="#FFFFFF" fill-opacity="0.9"/>
  <circle cx="413" cy="634" r="52" fill="url(#cyanNode)"/>
  <circle cx="413" cy="634" r="18" fill="#FFFFFF" fill-opacity="0.9"/>
</svg>
